<svg id="MUSIQUIZ" xmlns="http://www.w3.org/2000/svg" viewBox="0 0 640 320"><defs><style>.cls-1{fill:#fff;}.cls-2{fill:red;}.cls-3{fill:#0071bc;}.cls-4{fill:#fbb03b;}.cls-5{fill:#009245;}</style></defs><title>1Artboard 1</title><path class="cls-1" d="M352.48,125.32a37.84,37.84,0,0,1,11,1.6,25.08,25.08,0,0,1,9.13,4.86,22.51,22.51,0,0,1,5.88,7.73,20.91,20.91,0,0,1,2.07,8.86,21.9,21.9,0,0,1-.57,5,20.64,20.64,0,0,1-1.64,4.55,21.49,21.49,0,0,1-2.3,3.66c-.83,1-1.84,2.15-3,3.35,2.21-.32,3.85-.59,4.91-.81s2.51-.57,4.31-1c-.46,1.9-.83,3.68-1.12,5.36l-1,5.84q-5.83.93-13.69,1.51t-14,.58a56.31,56.31,0,0,1-10.29-.9,28,28,0,0,1-8.91-3.24,24,24,0,0,1-6.73-5.62,20.19,20.19,0,0,1-3.77-7,28.25,28.25,0,0,1-1.1-8,26.26,26.26,0,0,1,2.06-10.5,23,23,0,0,1,6-8.27,29.29,29.29,0,0,1,9.69-5.51,39.4,39.4,0,0,1,13.12-2m-1.94,39.9a15,15,0,0,0,7.42-1.91,12.63,12.63,0,0,0,5.22-5.46,16.81,16.81,0,0,0,1.8-7.72,15.8,15.8,0,0,0-1.58-7.06,11.74,11.74,0,0,0-4.7-5,13.66,13.66,0,0,0-7-1.82,15.25,15.25,0,0,0-7.77,2.05,13.66,13.66,0,0,0-5.4,5.67,16.32,16.32,0,0,0-1.85,7.48,14.17,14.17,0,0,0,1.78,7.27,12.44,12.44,0,0,0,5.06,4.79,15,15,0,0,0,7.06,1.73m1.94-48.91a48.39,48.39,0,0,0-16.12,2.53,38.31,38.31,0,0,0-12.64,7.23,32.09,32.09,0,0,0-8.36,11.48,35.32,35.32,0,0,0-2.79,14.06A37.29,37.29,0,0,0,314,162.1a29,29,0,0,0,5.41,10.17,33.08,33.08,0,0,0,9.24,7.75,37.24,37.24,0,0,0,11.76,4.29,65.31,65.31,0,0,0,11.93,1.05c4.33,0,9.27-.2,14.7-.6s10.33-.94,14.45-1.6l6.32-1,1.13-6.29,1-5.84c.27-1.54.6-3.15,1-4.84l3.49-14.51-5.14,1.3a30.74,30.74,0,0,0,.21-3.59,30,30,0,0,0-2.91-12.66,31.63,31.63,0,0,0-8.21-10.78,34.05,34.05,0,0,0-12.38-6.64,47,47,0,0,0-13.61-2Zm-1.94,39.9a5.83,5.83,0,0,1-2.85-.69,3.34,3.34,0,0,1-1.48-1.35,5.55,5.55,0,0,1-.56-2.74,7.3,7.3,0,0,1,.86-3.37,4.59,4.59,0,0,1,1.9-2,6.25,6.25,0,0,1,3.25-.84,4.66,4.66,0,0,1,2.49.59,2.73,2.73,0,0,1,1.17,1.23,6.77,6.77,0,0,1,.65,3.07,7.84,7.84,0,0,1-.83,3.65,3.72,3.72,0,0,1-1.57,1.66,6,6,0,0,1-3,.77Z"/><path class="cls-1" d="M513.79,126.25c-.17,2.52-.28,4.52-.32,6l-.15,4.83-2.05,2c-.34.33-.67.68-1,1l-22.54,24.67,4.94,0c1.17,0,2.88,0,5.11,0l9.93-.21,3.93-.18q-.4,6.4-.54,11-11.49-.07-20.85-.07H482l-9.3,0-4.71,0c.28-4.94.43-8.59.43-10.95l2.12-2.09q.44-.42,6.66-7.16l11.95-12.93q2.08-2.34,4.86-5.58l-2.84,0-2.85,0h-5q-5.69,0-12,.4c.22-2.59.32-5.4.32-8.43,0-.57,0-1.35-.07-2.34q10.23.07,21.72.07,11.88,0,20.49-.07m9.64-9.09-9.72.08c-5.68.05-12.55.07-20.41.07-7.61,0-14.89,0-21.66-.07l-9.52-.07.46,9.52c0,.8.06,1.44.06,1.9,0,2.77-.1,5.35-.29,7.68l-.87,10.4,10.41-.66,1.66-.09-2.94,3.17c-4.89,5.29-6.14,6.63-6.43,6.93l-2.05,2-2.69,2.65v3.77c0,2.17-.14,5.68-.42,10.43l-.56,9.61,9.62-.08,4.72,0,9.26,0h8.18c6.19,0,13.19,0,20.79.07l8.79.06.28-8.79c.09-3,.27-6.62.52-10.78l.63-10.07-10.08.52-2.78.13,8.52-9.33.67-.69,2-1.93,2.64-2.55.11-3.66.14-4.83c0-1.33.15-3.24.31-5.65l.65-9.69Z"/><path class="cls-1" d="M191.9,126.25q-.69,12.13-.9,20.85-.47,17.09-.47,23.49c0,.88,0,2.49.07,4.82q-4.75-.07-6.66-.07-2.77,0-6.81.07.3-3.24.74-15.43t.43-15.58c0-1,0-2.35-.07-4.1L173.51,155l-6.78,20.45c-3.13,0-5.27-.07-6.45-.07q-2.24,0-6.84.07L149,155.6l-2.6-10.55c-.1-.41-.21-.91-.33-1.51s-.31-1.66-.57-3.17l-.91,10-1.2,20.45-.11,4.61c-3.31,0-5.43-.07-6.34-.07q-1.87,0-6.48.07l.89-7.27,2.22-25.25,1.1-16.64q6.66.07,10.45.07,3.15,0,9.61-.07c.31,2.07.58,3.63.79,4.7s.75,3.16,1.6,6.27,1.53,5.8,2,8.07,1.29,6.15,2.32,11.65c1-3.77,2-7,2.88-9.73s1.95-5.8,3.25-9.25,2.12-5.72,2.47-6.79.82-2.71,1.43-4.92q5.4.07,10.58.07c2.36,0,5.62,0,9.8-.07m9.54-9.12-9.64.11q-6.21.08-9.7.07c-3.4,0-6.92,0-10.46-.07l-7-.09-1.41,5.16-.78-5.16-7.84.09q-6.4.08-9.51.07-3.76,0-10.35-.07l-8.52-.09-.57,8.5-1.1,16.55-2.19,25-.87,7.12-1.26,10.27,10.34-.16q4.52-.07,6.34-.07,1.35,0,6.21.07l3.08.05,0,.07,2.3,0,3.53.05v-.1l1.5,0q4.51-.07,6.7-.07,1.72,0,6.31.07h.68v.17l5.07-.09h.87v0l4.08-.07c2.63,0,4.86-.07,6.65-.07,1.25,0,3.42,0,6.53.07l9.33.14-.19-9.33c0-2.24-.07-3.79-.07-4.64,0-4.17.16-12,.47-23.24.14-5.71.44-12.63.89-20.59l.54-9.63Z"/><path class="cls-1" d="M275.88,125.32a69,69,0,0,1,13.26,1.4c.07,1.66.15,3.18.25,4.56s.32,3.8.68,7.25a33.66,33.66,0,0,0-6.05-1.85,25.51,25.51,0,0,0-4.72-.52,9.37,9.37,0,0,0-4.66,1,3,3,0,0,0-1.85,2.59,3.66,3.66,0,0,0,.28,1.41,7,7,0,0,0,1.08,1.6,19.58,19.58,0,0,0,2.09,2c.87.73,2.22,1.82,4.07,3.26l2.6,2c.76.62,1.59,1.38,2.48,2.27A24.44,24.44,0,0,1,287.7,155a15.23,15.23,0,0,1,1.49,2.37,9.8,9.8,0,0,1,.77,2.18,10.47,10.47,0,0,1,.26,2.36,13.11,13.11,0,0,1-1.55,6.18,13,13,0,0,1-4.4,4.82,18.11,18.11,0,0,1-6.24,2.65,32.75,32.75,0,0,1-7.19.76,82.43,82.43,0,0,1-14.73-1.69q-.47-7.68-1.08-12.29a38,38,0,0,0,7.2,2.51,25.76,25.76,0,0,0,5.54.7,11.44,11.44,0,0,0,5-.92,2.92,2.92,0,0,0,1.85-2.72,3.77,3.77,0,0,0-.18-1.17,5,5,0,0,0-.68-1.26,9.48,9.48,0,0,0-1.45-1.53l-6.78-5.91q-2.38-2-3.32-2.91a21.92,21.92,0,0,1-3-3.42,11.66,11.66,0,0,1-1.55-3.23,11.93,11.93,0,0,1-.49-3.47,12.34,12.34,0,0,1,.78-4.31,13.14,13.14,0,0,1,2.32-3.94,13.44,13.44,0,0,1,4.1-3.17,18.42,18.42,0,0,1,5.48-1.82,36.94,36.94,0,0,1,6-.48m0-9a46.08,46.08,0,0,0-7.49.6,27.44,27.44,0,0,0-8.16,2.72A22.42,22.42,0,0,0,253.4,125a22,22,0,0,0-3.89,6.65,21.41,21.41,0,0,0-1.33,7.41,21.2,21.2,0,0,0,.86,6,21,21,0,0,0,2.71,5.68l.28.41L244,147.58l2.12,16c.38,2.85.72,6.77,1,11.64l.42,7,6.89,1.31a89.89,89.89,0,0,0,16.41,1.85,42.46,42.46,0,0,0,9.14-1,27.31,27.31,0,0,0,9.28-3.94,22.23,22.23,0,0,0,10-18.51,18.93,18.93,0,0,0-1.93-8.46,22.21,22.21,0,0,0-1.81-3.06l5.09,2.05L299,137.6c-.35-3.34-.57-5.68-.66-6.95s-.17-2.75-.24-4.32l-.31-7.09-7-1.36a78.09,78.09,0,0,0-15-1.57Z"/><path class="cls-1" d="M315.68,126.25q-.66,8.1-1.05,15.34-.51,10.09-.72,18.86t-.22,15l-7.38-.07q-2.16,0-8.85.07,2.07-28.92,2.07-44.51l0-4.65q6.3.07,8.43.07l7.75-.07m9.77-9.11-9.87.1-7.65.07q-2.1,0-8.33-.07l-9.19-.1.07,9.18,0,4.65c0,10.05-.69,24.81-2,43.8l-.7,9.76,9.78-.11q6.63-.07,8.76-.07l7.29.07,9.1.09v-9.1c0-4,.07-9,.21-14.74s.39-12,.72-18.62c.26-4.68.6-9.76,1-15.07l.79-9.84Z"/><path class="cls-1" d="M463.3,126.25q-.66,8.1-1.05,15.34-.51,10.09-.72,18.86t-.22,15l-7.38-.07q-2.16,0-8.85.07,2.07-28.92,2.07-44.51l0-4.65q6.3.07,8.43.07l7.75-.07m9.77-9.11-9.87.1-7.65.07q-2.1,0-8.33-.07l-9.19-.1.07,9.18,0,4.65c0,10.06-.69,24.81-2.05,43.8l-.7,9.76,9.78-.11q6.63-.07,8.76-.07l7.29.07,9.1.09v-9.1c0-4,.07-9,.21-14.74s.39-12,.72-18.62c.26-4.68.6-9.76,1-15.07l.79-9.84Z"/><path class="cls-2" d="M240.27,136.94s0,32.53-.05,33.72c0,.66-.3.87-.94,1-2.46.55-30.68,4.94-31.32,5.05a7.4,7.4,0,0,1-1.67.29c-.75-.06-.46-1.31-.46-1.86,0-1.28,0-29.77,0-34.9,0-2.26.08-4.25,1.64-6a10.64,10.64,0,0,1,4.63-3.13,7.1,7.1,0,0,1,5.93.34,3.82,3.82,0,0,1,1.68,4.27c-1,3.74-5.29,6.58-9,6.57-1.21,0-.43.14-.43.14s0,16.66,0,21.43c0,.46-.28,1.89.18,2.22.22.16.75,0,1-.06l23.21-4c.74-.13,1.2-.18,1.27-1,.18-2.27-.05-28.53.22-29.57.92-3.49,4.8-5.94,8.25-6.22,1.9-.15,4,.34,5,2.1s.4,3.56-.55,5.06a10.55,10.55,0,0,1-7.93,4.43C239.54,136.92,240.27,136.94,240.27,136.94Z"/><path class="cls-1" d="M433.17,122.94a4.84,4.84,0,0,1,4.4,2.13c.95,1.63.4,3.55-.55,5.05a9.89,9.89,0,0,1-4.48,3.62,9.74,9.74,0,0,1-3.45.82c-1.32.05-.59.08-.59.08s0,32.53-.05,33.71c0,.67-.3.88-.93,1-2.47.55-30.69,4.93-31.33,5a10,10,0,0,1-1.54.29h-.12c-.76-.06-.46-1.31-.46-1.85,0-1.28,0-29.77,0-34.91,0-2.25.08-4.24,1.65-6a10.64,10.64,0,0,1,4.62-3.13,9.41,9.41,0,0,1,2.85-.48,5.72,5.72,0,0,1,3.09.83,3.8,3.8,0,0,1,1.67,4.27c-1,3.73-5.27,6.56-9,6.56h-.07c-1.14,0-.38.15-.38.15s0,16.65,0,21.42c0,.47-.28,1.89.17,2.22a.4.4,0,0,0,.26.07,3.66,3.66,0,0,0,.7-.13l23.22-4c.73-.13,1.19-.18,1.26-1,.18-2.27-.05-28.53.22-29.56.92-3.5,4.8-6,8.25-6.22l.64,0m0-9q-.68,0-1.35.06c-6.42.5-14,5-16.16,12.56a12.83,12.83,0,0,0-4.57-5,14.73,14.73,0,0,0-7.92-2.23,18.22,18.22,0,0,0-5.63.92A19.59,19.59,0,0,0,389,126c-4,4.48-3.94,9.6-3.92,12.07,0,2.92,0,14,0,33v1.57a10.43,10.43,0,0,0,2.26,7.79,9.39,9.39,0,0,0,6.49,3.32,7.94,7.94,0,0,0,.85,0,13,13,0,0,0,3.2-.44h0l3.79-.59c18.68-2.94,26.21-4.16,27.8-4.52a9.83,9.83,0,0,0,8-9.19c0-.34.1-1.34.08-27.63a18.39,18.39,0,0,0,7.11-6.39c3-4.69,3.25-10.08.73-14.42a13.81,13.81,0,0,0-12.19-6.6Zm-25.7,32.86a19.19,19.19,0,0,0,7.66-7.36c0,1.79,0,3.87,0,6.28v6.22l-7.66,1.3c0-2.17,0-4.43,0-6.44Z"/><path class="cls-1" d="M560.35,145.22h.12c.76.06.46,1.31.46,1.85,0,1.28,0,29.77,0,34.91,0,2.25-.08,4.24-1.65,6a10.56,10.56,0,0,1-4.62,3.13,9.41,9.41,0,0,1-2.85.48,5.72,5.72,0,0,1-3.09-.83,3.8,3.8,0,0,1-1.67-4.27c1-3.73,5.27-6.56,9-6.56h.07c1.14,0,.38-.14.38-.14s0-16.66,0-21.43c0-.47.28-1.89-.17-2.22a.4.4,0,0,0-.26-.07,3.66,3.66,0,0,0-.7.13c-.6.11-22.15,3.76-23.22,4-.73.13-1.19.18-1.26,1-.18,2.27,0,28.53-.22,29.56-.92,3.5-4.8,5.95-8.25,6.22l-.64,0a4.84,4.84,0,0,1-4.4-2.13c-.95-1.63-.4-3.55.55-5.05a9.8,9.8,0,0,1,4.48-3.61,9.54,9.54,0,0,1,3.45-.83c1.32-.05.59-.08.59-.08s0-32.52,0-33.71c0-.67.3-.87.93-1,2.47-.54,30.69-4.93,31.33-5.05a10,10,0,0,1,1.54-.29m0-9h0a13,13,0,0,0-3.2.44h0l-3.79.6c-18.68,2.93-26.21,4.15-27.8,4.51a9.84,9.84,0,0,0-8,9.19c0,.35-.1,1.34-.08,27.63a18.39,18.39,0,0,0-7.11,6.39c-3,4.69-3.25,10.08-.73,14.42a13.81,13.81,0,0,0,12.19,6.6c.45,0,.9,0,1.35-.05,6.42-.51,14-5,16.16-12.57a12.83,12.83,0,0,0,4.57,5,14.73,14.73,0,0,0,7.92,2.23,18.22,18.22,0,0,0,5.63-.92A19.59,19.59,0,0,0,566,194c4-4.48,3.94-9.6,3.92-12.07,0-2.9,0-14,0-32.85v-1.7a10.43,10.43,0,0,0-2.26-7.79,9.43,9.43,0,0,0-6.49-3.32,7.94,7.94,0,0,0-.85,0ZM539.88,168l7.66-1.31c0,2.17,0,4.43,0,6.44a19.19,19.19,0,0,0-7.66,7.36c0-1.79,0-3.86,0-6.28V168Z"/><path class="cls-1" d="M122.42,145.22h.13c.76.06.46,1.31.46,1.85,0,1.28,0,29.77,0,34.91,0,2.25-.07,4.24-1.64,6a10.61,10.61,0,0,1-4.62,3.13,9.41,9.41,0,0,1-2.85.48,5.7,5.7,0,0,1-3.09-.83,3.8,3.8,0,0,1-1.67-4.27c1-3.73,5.26-6.56,9-6.56h.07c1.14,0,.39-.14.39-.14s0-16.66,0-21.43c0-.47.28-1.89-.18-2.22a.39.39,0,0,0-.25-.07,3.63,3.63,0,0,0-.71.13c-.6.11-22.14,3.76-23.21,4-.73.13-1.2.18-1.26,1-.18,2.27,0,28.53-.23,29.56-.92,3.5-4.8,5.95-8.25,6.22-.21,0-.43,0-.64,0a4.84,4.84,0,0,1-4.4-2.13c-1-1.63-.4-3.55.55-5.05a9.8,9.8,0,0,1,4.48-3.61,9.59,9.59,0,0,1,3.45-.83c1.32-.05.59-.08.59-.08s0-32.52.05-33.71c0-.67.3-.87.94-1,2.46-.54,30.68-4.93,31.32-5.05a10,10,0,0,1,1.54-.29m0-9h0a13.12,13.12,0,0,0-3.2.44h0l-3.79.6c-18.67,2.93-26.21,4.15-27.8,4.51a9.85,9.85,0,0,0-8,9.19c0,.35-.09,1.34-.08,27.63A18.53,18.53,0,0,0,72.44,185c-3,4.69-3.25,10.08-.72,14.42A13.78,13.78,0,0,0,83.9,206c.45,0,.91,0,1.35-.05,6.43-.51,14-5,16.16-12.57a12.91,12.91,0,0,0,4.57,5,14.74,14.74,0,0,0,7.93,2.23,18.27,18.27,0,0,0,5.63-.92,19.7,19.7,0,0,0,8.58-5.72c4-4.48,3.93-9.6,3.91-12.07,0-2.92,0-14,0-33v-1.57a10.46,10.46,0,0,0-2.25-7.79,9.45,9.45,0,0,0-6.49-3.32,8.12,8.12,0,0,0-.86,0ZM102,168l7.66-1.31c0,2.17,0,4.43,0,6.44A19.16,19.16,0,0,0,102,180.5V168Z"/><path d="M382.27,163.06c-.46,1.9-.83,3.68-1.12,5.36l-1,5.84q-5.83.93-13.69,1.51t-14,.58a56.31,56.31,0,0,1-10.29-.9,28,28,0,0,1-8.91-3.24,24,24,0,0,1-6.73-5.62,20.19,20.19,0,0,1-3.77-7,28.25,28.25,0,0,1-1.1-8,26.26,26.26,0,0,1,2.06-10.5,23,23,0,0,1,6-8.27,29.29,29.29,0,0,1,9.69-5.51,39.4,39.4,0,0,1,13.12-2,37.84,37.84,0,0,1,11,1.6,25.08,25.08,0,0,1,9.13,4.86,22.51,22.51,0,0,1,5.88,7.73,20.91,20.91,0,0,1,2.07,8.86,21.9,21.9,0,0,1-.57,5,20.64,20.64,0,0,1-1.64,4.55,21.49,21.49,0,0,1-2.3,3.66c-.83,1-1.84,2.15-3,3.35,2.21-.32,3.85-.59,4.91-.81S380.47,163.52,382.27,163.06Zm-30.61-26.83a15.25,15.25,0,0,0-7.77,2.05,13.66,13.66,0,0,0-5.4,5.67,16.32,16.32,0,0,0-1.85,7.48,14.17,14.17,0,0,0,1.78,7.27,12.44,12.44,0,0,0,5.06,4.79,15.32,15.32,0,0,0,14.48-.18,12.63,12.63,0,0,0,5.22-5.46,16.81,16.81,0,0,0,1.8-7.72,15.8,15.8,0,0,0-1.58-7.06,11.74,11.74,0,0,0-4.7-5A13.66,13.66,0,0,0,351.66,136.23Z"/><path d="M468,175.41c.28-4.94.43-8.59.43-10.95l2.12-2.09q.44-.42,6.66-7.16l11.95-12.93q2.08-2.34,4.86-5.58l-2.84,0-2.85,0h-5q-5.69,0-12,.4c.22-2.59.32-5.4.32-8.43,0-.57,0-1.35-.07-2.34q10.23.07,21.72.07,11.88,0,20.49-.07c-.17,2.52-.28,4.52-.32,6l-.15,4.83-2.05,2c-.34.33-.67.68-1,1l-22.54,24.67,4.94,0c1.17,0,2.88,0,5.11,0l9.93-.21,3.93-.18q-.4,6.4-.54,11-11.49-.07-20.85-.07H482l-9.3,0Z"/><path d="M130.46,175.41l.89-7.27,2.22-25.25,1.1-16.64q6.66.07,10.45.07,3.15,0,9.61-.07c.31,2.07.58,3.63.79,4.7s.75,3.16,1.6,6.27,1.53,5.8,2,8.07,1.29,6.15,2.32,11.65c1-3.77,2-7,2.88-9.73s1.95-5.8,3.25-9.25,2.12-5.72,2.47-6.79.82-2.71,1.43-4.92q5.4.07,10.58.07c2.36,0,5.62,0,9.8-.07q-.69,12.13-.9,20.85-.47,17.09-.47,23.49c0,.88,0,2.49.07,4.82q-4.75-.07-6.66-.07-2.77,0-6.81.07.3-3.24.74-15.43t.43-15.58c0-1,0-2.35-.07-4.1L173.51,155l-6.78,20.45c-3.13,0-5.27-.07-6.45-.07q-2.24,0-6.84.07L149,155.6l-2.6-10.55c-.1-.41-.21-.91-.33-1.51s-.31-1.66-.57-3.17l-.91,10-1.2,20.45-.11,4.61c-3.31,0-5.43-.07-6.34-.07Q135.07,175.34,130.46,175.41Z"/><path d="M256.11,174.66q-.47-7.68-1.08-12.29a38,38,0,0,0,7.2,2.51,25.76,25.76,0,0,0,5.54.7,11.37,11.37,0,0,0,5-.92,2.92,2.92,0,0,0,1.86-2.72,3.77,3.77,0,0,0-.18-1.17,5,5,0,0,0-.68-1.26,9.48,9.48,0,0,0-1.45-1.53l-6.78-5.91q-2.38-2-3.32-2.91a21.92,21.92,0,0,1-3-3.42,11.66,11.66,0,0,1-1.55-3.23,11.93,11.93,0,0,1-.49-3.47,12.34,12.34,0,0,1,.78-4.31,13.14,13.14,0,0,1,2.32-3.94,13.44,13.44,0,0,1,4.1-3.17,18.42,18.42,0,0,1,5.48-1.82,36.94,36.94,0,0,1,6-.48,69,69,0,0,1,13.26,1.4c.07,1.66.15,3.18.25,4.56s.32,3.8.68,7.25a33.66,33.66,0,0,0-6.05-1.85,25.51,25.51,0,0,0-4.72-.52,9.37,9.37,0,0,0-4.66,1,3,3,0,0,0-1.85,2.59,3.66,3.66,0,0,0,.28,1.41,7,7,0,0,0,1.08,1.6,19.58,19.58,0,0,0,2.09,2c.87.73,2.22,1.82,4.07,3.26l2.6,2c.76.62,1.59,1.38,2.48,2.27A24.44,24.44,0,0,1,287.7,155a15.23,15.23,0,0,1,1.49,2.37,9.8,9.8,0,0,1,.77,2.18,10.47,10.47,0,0,1,.26,2.36,13.11,13.11,0,0,1-1.55,6.18,13,13,0,0,1-4.4,4.82,18.11,18.11,0,0,1-6.24,2.65,32.75,32.75,0,0,1-7.19.76A82.43,82.43,0,0,1,256.11,174.66Z"/><path d="M297.46,175.41q2.07-28.92,2.07-44.51l0-4.65q6.3.07,8.43.07l7.75-.07q-.66,8.1-1.05,15.34-.51,10.09-.72,18.86t-.22,15l-7.38-.07Q304.15,175.34,297.46,175.41Z"/><path d="M445.08,175.41q2.07-28.92,2.07-44.51l0-4.65q6.3.07,8.43.07l7.75-.07q-.66,8.1-1.05,15.34-.51,10.09-.72,18.86t-.22,15l-7.38-.07Q451.77,175.34,445.08,175.41Z"/><path class="cls-1" d="M244.94,125.25a4.85,4.85,0,0,1,4.4,2.12c.95,1.64.4,3.56-.55,5.06a10.55,10.55,0,0,1-7.93,4.43c-1.32.06-.59.08-.59.08s0,32.53-.05,33.72c0,.66-.3.87-.94,1-2.46.55-30.68,4.94-31.32,5.05a8.9,8.9,0,0,1-1.54.29h-.13c-.75-.06-.46-1.31-.46-1.86,0-1.28,0-29.77,0-34.9,0-2.26.08-4.25,1.64-6a10.64,10.64,0,0,1,4.63-3.13,9.11,9.11,0,0,1,2.85-.48,5.65,5.65,0,0,1,3.08.82,3.82,3.82,0,0,1,1.68,4.27c-1,3.73-5.27,6.57-9,6.57h-.07c-1.14,0-.38.14-.38.14s0,16.66,0,21.43c0,.46-.28,1.89.18,2.22a.39.39,0,0,0,.25.06,4.71,4.71,0,0,0,.71-.12l23.21-4c.74-.13,1.2-.18,1.27-1,.18-2.27-.05-28.53.22-29.57.92-3.49,4.8-5.94,8.25-6.22l.64,0m0-9c-.45,0-.9,0-1.35.05-6.43.51-14,5-16.16,12.57a12.83,12.83,0,0,0-4.57-5,14.74,14.74,0,0,0-7.92-2.24,18.22,18.22,0,0,0-5.63.92,19.85,19.85,0,0,0-8.59,5.72c-4,4.48-3.93,9.61-3.91,12.07,0,2.93,0,14,0,33v1.56a10.45,10.45,0,0,0,2.25,7.79,9.46,9.46,0,0,0,6.49,3.33c.29,0,.57,0,.86,0a12.57,12.57,0,0,0,3.2-.44h0l3.8-.6c18.67-2.94,26.2-4.16,27.79-4.51a9.86,9.86,0,0,0,8-9.2c0-.34.09-1.33.08-27.63a18.44,18.44,0,0,0,7.11-6.38c3-4.7,3.25-10.09.73-14.42a13.79,13.79,0,0,0-12.19-6.6Zm-25.7,32.85a19.08,19.08,0,0,0,7.65-7.35v12.49l-7.66,1.3c0-2.16,0-4.42,0-6.44Z"/><path class="cls-3" d="M428.5,134.64s0,32.53-.05,33.71c0,.67-.3.88-.93,1-2.47.55-30.69,4.93-31.33,5a6.87,6.87,0,0,1-1.66.28c-.76-.06-.46-1.31-.46-1.85,0-1.28,0-29.77,0-34.91,0-2.25.08-4.24,1.65-6a10.64,10.64,0,0,1,4.62-3.13,7.09,7.09,0,0,1,5.94.35,3.8,3.8,0,0,1,1.67,4.27c-1,3.74-5.28,6.58-9,6.56-1.21,0-.43.15-.43.15s0,16.65,0,21.42c0,.47-.28,1.89.17,2.22.22.16.75,0,1-.06l23.22-4c.73-.13,1.19-.18,1.26-1,.18-2.27-.05-28.53.22-29.56.92-3.5,4.8-6,8.25-6.22,1.9-.15,4,.34,5,2.1s.4,3.55-.55,5.05a9.8,9.8,0,0,1-4.48,3.61,9.54,9.54,0,0,1-3.45.83C427.77,134.61,428.5,134.64,428.5,134.64Z"/><path class="cls-4" d="M526.5,185.29s0-32.52,0-33.71c0-.67.3-.87.93-1,2.47-.54,30.69-4.93,31.33-5.05a7.39,7.39,0,0,1,1.66-.28c.76.06.46,1.31.46,1.85,0,1.28,0,29.77,0,34.91,0,2.25-.08,4.24-1.65,6a10.56,10.56,0,0,1-4.62,3.13,7.09,7.09,0,0,1-5.94-.35,3.8,3.8,0,0,1-1.67-4.27c1-3.73,5.28-6.58,9-6.56,1.21,0,.43-.14.43-.14s0-16.66,0-21.43c0-.47.28-1.89-.17-2.22-.22-.16-.75,0-1,.06-.6.11-22.15,3.76-23.22,4-.73.13-1.19.18-1.26,1-.18,2.27,0,28.53-.22,29.56-.92,3.5-4.8,5.95-8.25,6.22-1.9.15-4-.34-5-2.1s-.4-3.55.55-5.05a9.8,9.8,0,0,1,4.48-3.61,9.54,9.54,0,0,1,3.45-.83C527.23,185.32,526.5,185.29,526.5,185.29Z"/><path class="cls-5" d="M88.57,185.29s0-32.52.05-33.71c0-.67.3-.87.94-1,2.46-.54,30.68-4.93,31.32-5.05a7.38,7.38,0,0,1,1.67-.28c.76.06.46,1.31.46,1.85,0,1.28,0,29.77,0,34.91,0,2.25-.07,4.24-1.64,6a10.61,10.61,0,0,1-4.62,3.13,7.09,7.09,0,0,1-5.94-.35,3.8,3.8,0,0,1-1.67-4.27c1-3.73,5.28-6.58,9-6.56,1.2,0,.43-.14.43-.14s0-16.66,0-21.43c0-.47.28-1.89-.18-2.22-.21-.16-.74,0-1,.06-.6.11-22.14,3.76-23.21,4-.73.13-1.2.18-1.26,1-.18,2.27,0,28.53-.23,29.56-.92,3.5-4.8,5.95-8.25,6.22-1.9.15-4-.34-5-2.1s-.4-3.55.55-5.05a9.8,9.8,0,0,1,4.48-3.61,9.59,9.59,0,0,1,3.45-.83C89.3,185.32,88.57,185.29,88.57,185.29Z"/></svg>